<svg id="call_black_24dp" xmlns="http://www.w3.org/2000/svg" width="65.5" height="65.5" viewBox="0 0 65.5 65.5">
  <path id="Path_199" data-name="Path 199" d="M0,0H65.5V65.5H0Z" fill="none"/>
  <path id="Path_200" data-name="Path 200" d="M12.658,8.456a33.59,33.59,0,0,0,1.228,7.066L10.611,18.8A40.446,40.446,0,0,1,8.538,8.456h4.119m26.9,32.792a34.791,34.791,0,0,0,7.093,1.228v4.065a42.086,42.086,0,0,1-10.367-2.046l3.274-3.246M15.277,3H5.728A2.736,2.736,0,0,0,3,5.728,46.374,46.374,0,0,0,49.378,52.106a2.736,2.736,0,0,0,2.728-2.728V39.857a2.736,2.736,0,0,0-2.728-2.728,31.12,31.12,0,0,1-9.739-1.555,2.29,2.29,0,0,0-.846-.136,2.8,2.8,0,0,0-1.937.791l-6,6A41.327,41.327,0,0,1,12.876,24.252l6-6a2.738,2.738,0,0,0,.682-2.783A30.993,30.993,0,0,1,18,5.728,2.736,2.736,0,0,0,15.277,3Z" transform="translate(5.197 5.197)" fill="#fff"/>
</svg>
