<svg xmlns="http://www.w3.org/2000/svg" width="58" height="34" viewBox="0 0 58 34">
  <g id="iconfinder_273_Ensign_Flag_Nation_kingdom_2634450" transform="translate(0 -106.7)">
    <rect id="Rectangle_467" data-name="Rectangle 467" width="58" height="34" transform="translate(0 106.7)" fill="#fff"/>
    <path id="Path_210" data-name="Path 210" d="M311.453,119.066l19.374-10.855V106.7h-1.34L307.4,119.066Z" transform="translate(-272.828)" fill="#bd0034"/>
    <path id="Path_211" data-name="Path 211" d="M334.8,303.4l20.29,11.347V312.48l-16.237-9.08Z" transform="translate(-297.09 -174.379)" fill="#bd0034"/>
    <path id="Path_212" data-name="Path 212" d="M0,111.779l17.347,9.767h4.065L0,109.5Z" transform="translate(0 -2.479)" fill="#bd0034"/>
    <path id="Path_213" data-name="Path 213" d="M20.485,303.4,0,314.873v.206H3.7L24.55,303.4Z" transform="translate(0 -174.379)" fill="#bd0034"/>
    <path id="Path_214" data-name="Path 214" d="M318.231,106.7H297.7v11.5Z" transform="translate(-264.238)" fill="#1a237b"/>
    <path id="Path_215" data-name="Path 215" d="M60.439,106.7H40l20.439,11.5Z" transform="translate(-35.42)" fill="#1a237b"/>
    <path id="Path_216" data-name="Path 216" d="M404.324,153.955V146.1L390.4,153.955Z" transform="translate(-346.324 -34.889)" fill="#1a237b"/>
    <path id="Path_217" data-name="Path 217" d="M404.324,311.152V303.4H390.4Z" transform="translate(-346.324 -174.379)" fill="#1a237b"/>
    <path id="Path_218" data-name="Path 218" d="M50.1,321.721H69.382V310.9Z" transform="translate(-44.363 -181.021)" fill="#1a237b"/>
    <path id="Path_219" data-name="Path 219" d="M297.7,321.721h19.34L297.7,310.9Z" transform="translate(-264.238 -181.021)" fill="#1a237b"/>
    <path id="Path_220" data-name="Path 220" d="M0,303.4v8.107L14.4,303.4Z" transform="translate(0 -174.379)" fill="#1a237b"/>
    <path id="Path_221" data-name="Path 221" d="M0,151.83H14.4L0,143.7Z" transform="translate(0 -32.763)" fill="#1a237b"/>
    <path id="Path_222" data-name="Path 222" d="M26.553,106.7v14.308H0v6.056H26.553V140.7h5.381V127.064H58v-6.056H31.934V106.7Z" transform="translate(0 0)" fill="#bd0034"/>
  </g>
</svg>
