<svg id="Component" xmlns="http://www.w3.org/2000/svg" width="24.469" height="24.469" viewBox="0 0 24.469 24.469">
  <path id="Path_3" data-name="Path 3" d="M12.234,2.175a37.513,37.513,0,0,1,4.894.136,6.305,6.305,0,0,1,2.311.408A4.774,4.774,0,0,1,21.75,5.03a6.3,6.3,0,0,1,.408,2.311c0,1.223.136,1.631.136,4.894a37.513,37.513,0,0,1-.136,4.894,6.305,6.305,0,0,1-.408,2.311,4.774,4.774,0,0,1-2.311,2.311,6.3,6.3,0,0,1-2.311.408c-1.223,0-1.631.136-4.894.136a37.513,37.513,0,0,1-4.894-.136A6.305,6.305,0,0,1,5.03,21.75a4.774,4.774,0,0,1-2.311-2.311,6.3,6.3,0,0,1-.408-2.311c0-1.223-.136-1.631-.136-4.894a37.513,37.513,0,0,1,.136-4.894A6.305,6.305,0,0,1,2.719,5.03,4.882,4.882,0,0,1,3.67,3.67,2.3,2.3,0,0,1,5.03,2.719a6.305,6.305,0,0,1,2.311-.408,37.513,37.513,0,0,1,4.894-.136m0-2.175A40.166,40.166,0,0,0,7.2.136,8.392,8.392,0,0,0,4.214.68,5.322,5.322,0,0,0,2.039,2.039,5.322,5.322,0,0,0,.68,4.214,6.194,6.194,0,0,0,.136,7.2,40.166,40.166,0,0,0,0,12.234a40.166,40.166,0,0,0,.136,5.03A8.392,8.392,0,0,0,.68,20.255,5.322,5.322,0,0,0,2.039,22.43a5.322,5.322,0,0,0,2.175,1.359,8.392,8.392,0,0,0,2.991.544,40.165,40.165,0,0,0,5.03.136,40.165,40.165,0,0,0,5.03-.136,8.392,8.392,0,0,0,2.991-.544,5.7,5.7,0,0,0,3.534-3.534,8.392,8.392,0,0,0,.544-2.991c0-1.359.136-1.767.136-5.03a40.165,40.165,0,0,0-.136-5.03,8.392,8.392,0,0,0-.544-2.991A5.322,5.322,0,0,0,22.43,2.039,5.322,5.322,0,0,0,20.255.68,8.392,8.392,0,0,0,17.264.136,40.166,40.166,0,0,0,12.234,0m0,5.981a6.152,6.152,0,0,0-6.253,6.253,6.253,6.253,0,1,0,6.253-6.253m0,10.331a4.005,4.005,0,0,1-4.078-4.078,4.005,4.005,0,0,1,4.078-4.078,4.005,4.005,0,0,1,4.078,4.078,4.005,4.005,0,0,1-4.078,4.078m6.525-12.1a1.5,1.5,0,1,0,1.5,1.5,1.509,1.509,0,0,0-1.5-1.5" fill="#fff" fill-rule="evenodd"/>
</svg>
