<svg xmlns="http://www.w3.org/2000/svg" width="65.5" height="65.5" viewBox="0 0 65.5 65.5">
  <g id="Group_34" data-name="Group 34" transform="translate(-1166.25 -48)">
    <path id="Path_204" data-name="Path 204" d="M0,0H65.5V65.5H0Z" transform="translate(1166.25 48)" fill="none"/>
    <path id="Path_205" data-name="Path 205" d="M21.6,2C12.424,2,5,10.229,5,20.4c0,13.8,16.6,34.179,16.6,34.179s16.6-20.376,16.6-34.179C38.208,10.229,30.784,2,21.6,2ZM9.744,20.4c0-7.257,5.313-13.146,11.86-13.146s11.86,5.889,11.86,13.146c0,7.572-6.831,18.9-11.86,25.976C16.67,39.361,9.744,27.9,9.744,20.4Z" transform="translate(1177.396 52.458)" fill="#25a244"/>
    <circle id="Ellipse_6" data-name="Ellipse 6" cx="8.073" cy="8.073" r="8.073" transform="translate(1190.927 64.884)" fill="#25a244"/>
  </g>
</svg>
